<svg preserveAspectRatio="none" overflow="visible" style="display: block;" width="20" height="20" viewBox="0 0 20 20" fill="none" xmlns="http://www.w3.org/2000/svg">
<g id="Frame">
<path id="Vector" d="M4.16667 2.5C3.72464 2.5 3.30072 2.67559 2.98816 2.98816C2.67559 3.30072 2.5 3.72464 2.5 4.16667" stroke="#999999" stroke-width="1.66667" stroke-linecap="round" stroke-linejoin="round"/>
<path id="Vector_2" d="M15.8333 2.5C16.2754 2.5 16.6993 2.67559 17.0118 2.98816C17.3244 3.30072 17.5 3.72464 17.5 4.16667" stroke="#999999" stroke-width="1.66667" stroke-linecap="round" stroke-linejoin="round"/>
<path id="Vector_3" d="M17.5 15.8333C17.5 16.2754 17.3244 16.6993 17.0118 17.0118C16.6993 17.3244 16.2754 17.5 15.8333 17.5" stroke="#999999" stroke-width="1.66667" stroke-linecap="round" stroke-linejoin="round"/>
<path id="Vector_4" d="M4.16667 17.5C3.72464 17.5 3.30072 17.3244 2.98816 17.0118C2.67559 16.6993 2.5 16.2754 2.5 15.8333" stroke="#999999" stroke-width="1.66667" stroke-linecap="round" stroke-linejoin="round"/>
<path id="Vector_5" d="M7.5 2.5H8.33333" stroke="#999999" stroke-width="1.66667" stroke-linecap="round" stroke-linejoin="round"/>
<path id="Vector_6" d="M7.5 17.5H8.33333" stroke="#999999" stroke-width="1.66667" stroke-linecap="round" stroke-linejoin="round"/>
<path id="Vector_7" d="M11.6667 2.5H12.5" stroke="#999999" stroke-width="1.66667" stroke-linecap="round" stroke-linejoin="round"/>
<path id="Vector_8" d="M11.6667 17.5H12.5" stroke="#999999" stroke-width="1.66667" stroke-linecap="round" stroke-linejoin="round"/>
<path id="Vector_9" d="M2.5 7.5V8.33333" stroke="#999999" stroke-width="1.66667" stroke-linecap="round" stroke-linejoin="round"/>
<path id="Vector_10" d="M17.5 7.5V8.33333" stroke="#999999" stroke-width="1.66667" stroke-linecap="round" stroke-linejoin="round"/>
<path id="Vector_11" d="M2.5 11.6667V12.5" stroke="#999999" stroke-width="1.66667" stroke-linecap="round" stroke-linejoin="round"/>
<path id="Vector_12" d="M17.5 11.6667V12.5" stroke="#999999" stroke-width="1.66667" stroke-linecap="round" stroke-linejoin="round"/>
</g>
</svg>
